<?xml version="1.0" encoding="UTF-8"?>
<svg id="Layer_2" data-name="Layer 2" xmlns="http://www.w3.org/2000/svg" viewBox="0 0 52.03 54.1">
  <defs>



   <linearGradient id="myGradient" x1="0%" y1="100%" x2="0%" y2="0%">
    <animate attributeName="x1" values="0%;100%;0%" dur="10s" repeatCount="indefinite" />
    <animate attributeName="x2" values="0%;100%;0%" dur="10s" repeatCount="indefinite" begin="2s" />
    <stop offset="0%" stop-color="#41D2E0" />
    <stop offset="50%" stop-color="#DE2FDB" />
    <stop offset="100%" stop-color="#3A1244" />
  </linearGradient>

  </defs>
  <g id="Layer_1-2" data-name="Layer 1">
    <g>
      <path fill="url(#myGradient)" d="m51.92,31.25c-.16-1.41-.66-2.39-1.5-3-1.94-1.4-4-2.38-6.13-2.9-2.47-.6-4.02,1.33-4.53,1.97-5.87,7.32-12.8,12.98-20.61,16.83-4.09,2.02-8.5,3.48-12.77,4.89l-.62.2c-.72.23-2.42.78-2.19,2.55.23,1.8,1.96,1.92,2.79,1.98l.22.02c2.96.24,5.93.31,8.89.31,2.24,0,4.46-.04,6.65-.08,1.68-.03,3.37-.06,5.05-.07h.99v-.39c1.48,0,2.96,0,4.44.01,4.25.01,8.64.03,12.97-.04,4.11-.06,6.09-2.13,6.05-6.33-.03-3.46-.07-7.05.23-10.64.13-1.62.29-3.46.07-5.31Zm-32.79,19.32c-.28.04-.81.04-1.33.04h-.74c-.37,0-.76,0-.99-.02-.02-.24-.03-.64-.04-1.06,0-.08,0-.14,0-.17.01,0,.03-.01.05-.02,1.06-.43,2.09-.89,3.01-1.33,0,.2,0,.41,0,.61v.62c.03.52.06,1.06.04,1.33Zm6.21-.13c-1.09.1-2.19.19-2.4.05-.17-.2-.26-1.31-.35-2.39v-.18c-.13-1.41.11-1.9,1.1-2.24.6-.21,1.14-.52,1.65-.84v.48c0,1.69,0,3.38,0,5.11Zm17.8-12.19c-.16-2.78-.32-5.56-.45-8.35-.02-.49.09-.86.32-1.01.1-.07.23-.1.39-.1.21,0,.47.06.74.18.29.13.58.27.86.42.62.31,1.26.63,1.97.85,1.18.36,1.59,1.05,1.52,2.55,0,.22,0,.44,0,.66v.21c-.53,4.82-.55,9.68-.52,14.65,0,.87-.21,1.34-1.42,1.65-.58.15-1.19.16-1.89.15-.27,0-.53,0-.8,0v-.05c-.21-3.45-.42-6.89-.62-10.34l-.09-1.49Zm-7.41-1.07c0-.12-.01-.31,0-.35,1.23-1.11,2.45-2.23,3.66-3.35.1,1.52.21,3.12.3,4.72.08,1.49.16,2.98.24,4.46.13,2.5.26,5,.43,7.49,0,0,0,.01,0,.02-1.25-.03-2.58-.01-4.18.05-.09-3.03-.2-6.06-.31-9.09l-.14-3.94Zm-3.18,13.04c-.26.07-.96.09-1.64.11-.9.02-1.82.05-1.98-.01-.12-.2-.14-1.12-.16-2l-.13-5.45c0-.08,0-.21-.03-.21,0,0,0,0,0,0,1.19-.89,2.37-1.79,3.63-2.76l.08-.06.05,1.43c.08,2.48.16,4.88.22,7.28.02.66.04,1.4-.02,1.67Z"/>
      <path fill="url(#myGradient)" d="m31.09,33.41c4.14-3.71,7.64-7.43,10.7-11.38.17-.22.29-.33.35-.39.07.04.18.13.36.29.64.61,1.36,1.11,2.05,1.59.28.19.56.39.83.59,1.6,1.18,2.97.91,3.83.48,1.28-.64,1.95-1.8,1.96-3.35,0-1.88,0-3.76,0-5.64v-5.35c.01-1.96.02-3.93,0-5.89-.03-1.98-.84-3.04-1.52-3.57-.68-.53-1.89-1.08-3.82-.63-6.83,1.56-12.48,2.96-17.77,4.4-1.93.53-2.52,1.83-2.67,2.83-.21,1.43.42,2.68,1.77,3.5l.64.39c.85.52,1.74,1.06,2.67,1.52.01,0,.03.01.04.02-.02.03-.04.07-.06.12-2.73,4.99-6.03,9.52-9.79,13.48-4.95,5.2-10.45,10.02-15.77,14.68l-1.91,1.67c-.83.72-1.68,1.53-2.38,2.52-.27.38-.98,1.4-.31,2.57.45.78,1.2,1.17,2.24,1.17,1.53,0,2.95-.49,4.19-.93,8.78-3.07,16.75-7.88,24.37-14.7Zm2.95-19.71c.28-.52.61-1.3.35-2.1-.26-.8-.99-1.23-1.52-1.49-.95-.46-1.85-1.01-2.8-1.59-.3-.18-.6-.37-.9-.55,5.69-1.61,11.51-3.01,17.46-4.42.38-.09.6-.06.67,0,.08.06.18.3.2.75.25,5.97.25,11.38,0,16.52v.26c0,.06,0,.15-.01.22-.1-.06-.24-.16-.33-.23l-.96-.71c-.92-.68-1.87-1.38-2.74-2.12-.41-.35-1.05-.81-1.84-.73-.78.08-1.32.65-1.7,1.13-6.54,8.41-13.64,14.95-21.71,20-3.84,2.4-7.8,4.34-11.8,5.77l2.15-1.89c5.04-4.42,10.26-8.99,14.93-14.01,4.12-4.43,7.67-9.41,10.52-14.81Z"/>
    </g>
  </g>
</svg>