<?xml version="1.0" encoding="UTF-8"?>
<svg id="Layer_2" data-name="Layer 2" xmlns="http://www.w3.org/2000/svg" viewBox="0 0 43.73 43.74">
  <defs>
    <linearGradient id="myGradient" x1="0%" y1="0%" x2="100%" y2="0%">
      <stop offset="0%" stop-color="blue">
        <animate attributeName="stop-color" values="#E5A4BE;#744372;#E5A4BE" dur="3s" repeatCount="indefinite" />
      </stop>
    </linearGradient>
  </defs>
  <g id="Layer_1-2" data-name="Layer 1">
    <g>
      <path fill="url(#myGradient)" d="m19.62,0c1.49,0,2.98,0,4.47,0,.27.08.54.19.82.24,8.74,1.5,14.6,6.45,17.68,14.74.56,1.51.64,3.13,1.13,4.65v4.47c-.21.18-.21.43-.25.68-1.63,12.25-13.1,20.69-25.32,18.64C8.3,41.77.62,33.26.04,23.36-.56,13,5.92,3.71,15.76.88,17.03.52,18.33.29,19.62,0Zm20.01,21.82c-.05-9.86-8-17.76-17.83-17.72-9.85.04-17.76,8-17.72,17.83.04,9.85,8.01,17.77,17.83,17.72,9.85-.05,17.77-8.02,17.72-17.83Z"/>
      <path fill="url(#myGradient)" d="m22.49,11.02c1.03,0,2.08-.11,3.1.02,2.45.33,4.39,2.11,4.89,4.34.56,2.49-.39,5.04-2.45,6.45-.89.61-1.82,1.15-2.73,1.72-.73.45-1.41.82-1.65,1.83-.23.98-1.15,1.38-2.18,1.18-.95-.18-1.49-.81-1.61-1.79-.21-1.7.12-3.06,1.87-3.89,1.34-.64,2.55-1.53,3.82-2.3.78-.47,1.26-1.11,1.03-2.05-.23-.97-.95-1.45-1.9-1.48-1.49-.05-2.98-.06-4.47,0-1.28.05-1.7.93-1.86,2.08-.17,1.21-1.01,1.84-2.15,1.76-1.09-.08-1.8-.9-1.81-2.11,0-.54.05-1.07.21-1.59.81-2.56,2.95-4.17,5.65-4.22.74-.01,1.49,0,2.23,0,0,.02,0,.03,0,.05Z"/>
      <path fill="url(#myGradient)" d="m21.87,34.13c-1.54.02-2.69-1.08-2.72-2.61-.03-1.52,1.08-2.71,2.59-2.76,1.55-.05,2.81,1.15,2.81,2.68,0,1.47-1.19,2.67-2.68,2.69Z"/>
    </g>
  </g>
</svg>