<?xml version="1.0" encoding="UTF-8"?>
<svg id="Layer_2" data-name="Layer 2" xmlns="http://www.w3.org/2000/svg" viewBox="0 0 60.02 55.65">
  <defs>

    <linearGradient id="myGradient" x1="0%" y1="100%" x2="0%" y2="0%">
    <animate attributeName="x1" values="0%;100%;0%" dur="10s" repeatCount="indefinite" />
    <animate attributeName="x2" values="0%;100%;0%" dur="10s" repeatCount="indefinite" begin="2s" />
    <stop offset="0%" stop-color="#41D2E0" />
    <stop offset="50%" stop-color="#DE2FDB" />
    <stop offset="100%" stop-color="#3A1244" />
  </linearGradient>
  
  </defs>
  <g id="Layer_1-2" data-name="Layer 1">
    <g>
      <path fill="url(#myGradient)" d="m7.46,27.84c-1.09,1.19-2.13,2.3-3.14,3.43-.45.51-.79.56-1.28.02-.84-.92-1.72-1.8-2.64-2.64-.51-.47-.54-.75-.02-1.27C8.93,18.85,17.45,10.3,26.01,1.79c2.42-2.41,5.66-2.37,8.09.04,8.49,8.46,16.96,16.96,25.46,25.41.63.63.62.98-.03,1.54-.9.79-1.74,1.66-2.56,2.54-.46.5-.77.45-1.18-.03-1.02-1.17-2.07-2.32-3.21-3.6-.45.85-.33,1.31-.33,1.75,0,6.68,0,13.36,0,20.04,0,3.93-2.23,6.15-6.19,6.15-10.66,0-21.33,0-31.99,0-4.02,0-6.22-2.2-6.23-6.24-.01-6.6,0-13.2-.01-19.79,0-.48.13-.99-.35-1.77Zm22.53,22.24c5.15,0,10.29-.02,15.44.02.98,0,1.37-.18,1.36-1.28-.05-8.51-.03-17.01-.01-25.52,0-.72-.21-1.24-.72-1.75-5.12-5.09-10.22-10.19-15.3-15.32-.59-.59-.9-.56-1.46.01-5.08,5.13-10.19,10.23-15.3,15.32-.48.48-.67.97-.67,1.64.02,8.55.03,17.1,0,25.65,0,.97.25,1.26,1.24,1.25,5.15-.05,10.29-.02,15.44-.02Z"/>
      <path fill="url(#myGradient)" d="m42.75,30.2c-.03,1.31-.6,2.88-1.82,4.17-3.06,3.21-6.15,6.4-9.24,9.58-.99,1.02-1.73,1-2.75-.04-3.06-3.15-6.15-6.28-9.15-9.49-1.92-2.05-2.39-4.51-1.42-7.15.9-2.47,2.69-3.96,5.32-4.27,2.19-.26,4.13.47,5.62,2.07.85.93,1.28.77,2.1-.03,2.06-2.02,4.55-2.69,7.31-1.61,2.44.96,4.06,3.58,4.04,6.79Zm-18.46-4.96c-1.76.04-2.99.94-3.67,2.5-.77,1.78-.57,3.56.75,4.99,2.73,2.95,5.57,5.8,8.35,8.7.43.45.73.53,1.2.04,2.77-2.91,5.61-5.76,8.35-8.7,1.54-1.65,1.6-4.14.32-5.84-1.72-2.3-4.68-2.26-6.98.09-.73.74-1.42,2.01-2.2,2.07-.91.07-1.56-1.29-2.3-2.05-1.06-1.08-2.25-1.82-3.82-1.8Z"/>
    </g>
  </g>
</svg>